<svg xmlns="http://www.w3.org/2000/svg" width="18" height="32">
    <path fill="#E19178" d="M11 26v4c0 1.105-.896 2-2 2s-2-.895-2-2v-4h4z"/>
    <path fill="#00FFBB" d="M9 0c-4.972 0-9 4.028-9 9v15c0 1.105.896 2 2 2h14c1.104 0 2-.895 2-2v-15c0-4.972-4.029-9-9-9z"/>
    <path fill="#00cc95" d="M6 7c-1.104 0-2 .896-2 2v11c0 1.105.896 2 2 2s2-.895 2-2v-11c0-1.104-.896-2-2-2zm6 0c-1.104 0-2 .896-2 2v11c0 1.105.896 2 2 2s2-.895 2-2v-11c0-1.104-.896-2-2-2z"/>
    <path fill="#56382d" d="M9 0c-4.972 0-9 4.028-9 9v5h18v-5c0-4.972-4.029-9-9-9z"/>
    <g fill="#38241d">
        <path d="M8 14v-5c0-1.104-.896-2-2-2s-2 .896-2 2v5h4zM14 14v-5c0-1.104-.896-2-2-2s-2 .896-2 2v5h4z"/>
    </g>
</svg>